<svg width="253" height="92" viewBox="0 0 253 92" fill="none" xmlns="http://www.w3.org/2000/svg">
<path d="M243.63 92H9.37037C4.21901 92 0 86.8221 0 80.5V11.5003C0 5.17815 4.21901 0.000288312 9.37037 0.000288312H243.63C248.781 0.000288312 253 5.17815 253 11.5003V80.5C253 86.8221 248.781 92 243.63 92Z" fill="black"/>
<path d="M243.63 1.84316C247.968 1.84316 251.498 6.17577 251.498 11.5003V80.5C251.498 85.8245 247.968 90.1571 243.63 90.1571H9.37037C5.03189 90.1571 1.5016 85.8245 1.5016 80.5V11.5003C1.5016 6.17577 5.03189 1.84316 9.37037 1.84316H243.63ZM243.63 0.000288312H9.37037C4.21901 0.000288312 0 5.17815 0 11.5003V80.5C0 86.8221 4.21901 92 9.37037 92H243.63C248.781 92 253 86.8221 253 80.5V11.5003C253 5.17815 248.781 0.000288312 243.63 0.000288312Z" fill="#A6A6A6"/>
<path d="M88.8639 23.5611C88.8639 25.4816 88.3954 27.0198 87.4724 28.1669C86.4112 29.5267 85.0291 30.211 83.3354 30.211C81.7167 30.211 80.3346 29.5152 79.2007 28.1439C78.0646 26.7524 77.4977 25.0446 77.4977 23.0005C77.4977 20.9564 78.0646 19.2487 79.2007 17.8687C80.3346 16.4858 81.7167 15.79 83.3354 15.79C84.1413 15.79 84.9096 15.9942 85.6429 16.3737C86.3738 16.756 86.9688 17.2735 87.3998 17.9118L86.4206 19.125C85.6686 18.0354 84.6449 17.4978 83.3354 17.4978C82.1548 17.4978 81.131 18.0038 80.2619 19.0244C79.4022 20.0479 78.9712 21.3733 78.9712 23.0005C78.9712 24.6278 79.4022 25.9646 80.2619 26.9881C81.131 27.9972 82.1548 28.5147 83.3354 28.5147C84.5887 28.5147 85.6429 27.9972 86.4745 26.9766C87.0227 26.301 87.3342 25.3695 87.4162 24.1793H83.3354V22.5175H88.7796C88.8452 22.8769 88.8639 23.2248 88.8639 23.5611Z" fill="white" stroke="white" stroke-width="0.16" stroke-miterlimit="10"/>
<path d="M97.5011 17.7993H92.3872V22.1693H96.9974V23.8311H92.3872V28.201H97.5011V29.8944H90.9395V16.106H97.5011V17.7993Z" fill="white" stroke="white" stroke-width="0.16" stroke-miterlimit="10"/>
<path d="M103.596 29.8944H102.149V17.7993H99.0118V16.106H106.735V17.7993H103.596V29.8944Z" fill="white" stroke="white" stroke-width="0.16" stroke-miterlimit="10"/>
<path d="M112.325 29.8944V16.106H113.77V29.8944H112.325Z" fill="white" stroke="white" stroke-width="0.16" stroke-miterlimit="10"/>
<path d="M120.177 29.8944H118.741V17.7993H115.593V16.106H123.326V17.7993H120.177V29.8944Z" fill="white" stroke="white" stroke-width="0.16" stroke-miterlimit="10"/>
<path d="M137.948 28.1209C136.84 29.5152 135.467 30.211 133.83 30.211C132.183 30.211 130.81 29.5152 129.702 28.1209C128.596 26.7294 128.046 25.0216 128.046 23.0005C128.046 20.9794 128.596 19.2717 129.702 17.8802C130.81 16.4858 132.183 15.79 133.83 15.79C135.458 15.79 136.831 16.4858 137.939 17.8917C139.054 19.2947 139.604 20.9909 139.604 23.0005C139.604 25.0216 139.054 26.7294 137.948 28.1209ZM130.773 26.9651C131.607 27.9973 132.621 28.5147 133.83 28.5147C135.029 28.5147 136.053 27.9973 136.877 26.9651C137.709 25.933 138.131 24.6076 138.131 23.0005C138.131 21.3934 137.709 20.068 136.877 19.0359C136.053 18.0038 135.029 17.4863 133.83 17.4863C132.621 17.4863 131.607 18.0038 130.773 19.0359C129.941 20.068 129.519 21.3934 129.519 23.0005C129.519 24.6076 129.941 25.933 130.773 26.9651Z" fill="white" stroke="white" stroke-width="0.16" stroke-miterlimit="10"/>
<path d="M141.635 29.8944V16.106H143.392L148.855 26.8297H148.919L148.855 24.1789V16.106H150.301V29.8944H148.792L143.072 18.6417H143.008L143.072 21.3039V29.8944H141.635Z" fill="white" stroke="white" stroke-width="0.16" stroke-miterlimit="10"/>
<path d="M127.69 50.0305C123.288 50.0305 119.692 54.1418 119.692 59.8141C119.692 65.4405 123.288 69.5948 127.69 69.5948C132.101 69.5948 135.697 65.4405 135.697 59.8141C135.697 54.1418 132.101 50.0305 127.69 50.0305ZM127.69 65.7424C125.275 65.7424 123.197 63.2957 123.197 59.8141C123.197 56.2865 125.275 53.883 127.69 53.883C130.105 53.883 132.192 56.2865 132.192 59.8141C132.192 63.2957 130.105 65.7424 127.69 65.7424ZM110.24 50.0305C105.829 50.0305 102.242 54.1418 102.242 59.8141C102.242 65.4405 105.829 69.5948 110.24 69.5948C114.649 69.5948 118.238 65.4405 118.238 59.8141C118.238 54.1418 114.649 50.0305 110.24 50.0305ZM110.24 65.7424C107.822 65.7424 105.737 63.2957 105.737 59.8141C105.737 56.2865 107.822 53.883 110.24 53.883C112.655 53.883 114.733 56.2865 114.733 59.8141C114.733 63.2957 112.655 65.7424 110.24 65.7424ZM89.4752 53.0291V57.1864H97.5641C97.3275 59.5094 96.695 61.2171 95.7252 62.4074C94.5445 63.8449 92.7056 65.4405 89.4752 65.4405C84.4972 65.4405 80.5991 60.5099 80.5991 54.4005C80.5991 48.2912 84.4972 43.3606 89.4752 43.3606C92.1668 43.3606 94.1252 44.6514 95.5706 46.3247L97.9577 43.3951C95.9361 41.0261 93.2468 39.2062 89.4752 39.2062C82.6489 39.2062 76.9119 46.0228 76.9119 54.4005C76.9119 62.7782 82.6489 69.5948 89.4752 69.5948C93.1648 69.5948 95.936 68.1113 98.1147 65.3283C100.347 62.5885 101.043 58.736 101.043 55.6253C101.043 54.6593 100.977 53.7709 100.86 53.0291H89.4752ZM174.385 56.252C173.726 54.0641 171.695 50.0305 167.558 50.0305C163.459 50.0305 160.046 53.9951 160.046 59.8141C160.046 65.2939 163.424 69.5948 167.952 69.5948C171.613 69.5948 173.726 66.855 174.596 65.2593L171.878 63.037C170.972 64.6642 169.737 65.7424 167.952 65.7424C166.179 65.7424 164.907 64.7447 164.091 62.7782L174.753 57.3646L174.385 56.252ZM163.515 59.5094C163.424 55.7374 165.902 53.8054 167.678 53.8054C169.069 53.8054 170.25 54.6593 170.644 55.8811L163.515 59.5094ZM154.85 68.9997H158.354V40.2498H154.85V68.9997ZM149.111 52.2098H148.993C148.206 51.0655 146.705 50.0305 144.803 50.0305C140.811 50.0305 137.161 54.3315 137.161 59.8457C137.161 65.3284 140.811 69.5948 144.803 69.5948C146.705 69.5948 148.206 68.5512 148.993 67.3725H149.111V68.7755C149.111 72.5158 147.482 74.5254 144.856 74.5254C142.715 74.5254 141.387 72.6279 140.839 71.0323L137.791 72.5935C138.67 75.1867 140.996 78.3779 144.856 78.3779C148.965 78.3779 152.432 75.4109 152.432 68.1918V50.6256H149.111V52.2098ZM145.102 65.7424C142.687 65.7424 140.665 63.2612 140.665 59.8457C140.665 56.3986 142.687 53.883 145.102 53.883C147.482 53.883 149.359 56.3986 149.359 59.8457C149.359 63.2612 147.482 65.7424 145.102 65.7424ZM190.792 40.2498H182.41V68.9997H185.906V58.1064H190.792C194.674 58.1064 198.481 54.6593 198.481 49.1767C198.481 43.6969 194.665 40.2498 190.792 40.2498ZM190.884 54.1073H185.906V44.2489H190.884C193.493 44.2489 194.983 46.9083 194.983 49.1767C194.983 51.4019 193.493 54.1073 190.884 54.1073ZM212.489 49.9759C209.964 49.9759 207.338 51.3444 206.258 54.3775L209.36 55.9731C210.027 54.3775 211.255 53.86 212.553 53.86C214.366 53.86 216.205 55.1969 216.233 57.5573V57.8591C215.6 57.4106 214.246 56.7465 212.581 56.7465C209.24 56.7465 205.836 59.0034 205.836 63.2152C205.836 67.0677 208.573 69.5488 211.648 69.5488C214 69.5488 215.298 68.2465 216.113 66.7313H216.233V68.9537H219.609V57.9253C219.609 52.8279 216.507 49.9759 212.489 49.9759ZM212.068 65.7309C210.925 65.7309 209.332 65.0351 209.332 63.2957C209.332 61.0705 211.318 60.2166 213.038 60.2166C214.577 60.2166 215.298 60.6335 216.233 61.1826C215.959 63.8449 214.092 65.7309 212.068 65.7309ZM231.907 50.6055L227.89 63.0686H227.77L223.617 50.6055H219.847L226.088 68.0222L222.527 77.7138H226.179L235.796 50.6055H231.907ZM200.402 68.9997H203.906V40.2498H200.402V68.9997Z" fill="white"/>
<path d="M19.556 17.3393C19.0055 18.0465 18.6869 19.1477 18.6869 20.5737V71.438C18.6869 72.864 19.0055 73.9651 19.556 74.6724L19.6919 74.8276L42.9163 46.3365V45.6637L19.6919 17.1726L19.556 17.3393Z" fill="url(#paint0_linear_97_315)"/>
<path d="M50.6492 55.8379L42.9163 46.336V45.6633L50.6585 36.1615L50.8319 36.2851L60.0008 42.6877C62.6175 44.5047 62.6175 47.4947 60.0008 49.3232L50.8319 55.7143L50.6492 55.8379Z" fill="url(#paint1_linear_97_315)"/>
<path d="M50.8319 55.7143L42.9162 45.9997L19.5559 74.672C20.425 75.7932 21.8423 75.9283 23.454 74.8071L50.8319 55.7143Z" fill="url(#paint2_linear_97_315)"/>
<path d="M50.8319 36.2849L23.454 17.1921C21.8423 16.0824 20.425 16.2175 19.5559 17.3387L42.9162 45.9995L50.8319 36.2849Z" fill="url(#paint3_linear_97_315)"/>
<defs>
<linearGradient id="paint0_linear_97_315" x1="40.8543" y1="71.9677" x2="3.05038" y2="41.1645" gradientUnits="userSpaceOnUse">
<stop stop-color="#00A0FF"/>
<stop offset="0.0066" stop-color="#00A1FF"/>
<stop offset="0.2601" stop-color="#00BEFF"/>
<stop offset="0.5122" stop-color="#00D2FF"/>
<stop offset="0.7604" stop-color="#00DFFF"/>
<stop offset="1" stop-color="#00E3FF"/>
</linearGradient>
<linearGradient id="paint1_linear_97_315" x1="63.4081" y1="45.9965" x2="18.0614" y2="45.9965" gradientUnits="userSpaceOnUse">
<stop stop-color="#FFE000"/>
<stop offset="0.4087" stop-color="#FFBD00"/>
<stop offset="0.7754" stop-color="#FFA500"/>
<stop offset="1" stop-color="#FF9C00"/>
</linearGradient>
<linearGradient id="paint2_linear_97_315" x1="46.5276" y1="40.7187" x2="-4.73757" y2="-1.05308" gradientUnits="userSpaceOnUse">
<stop stop-color="#FF3A44"/>
<stop offset="1" stop-color="#C31162"/>
</linearGradient>
<linearGradient id="paint3_linear_97_315" x1="13.6756" y1="91.5941" x2="36.5678" y2="72.9414" gradientUnits="userSpaceOnUse">
<stop stop-color="#32A071"/>
<stop offset="0.0685" stop-color="#2DA771"/>
<stop offset="0.4762" stop-color="#15CF74"/>
<stop offset="0.8009" stop-color="#06E775"/>
<stop offset="1" stop-color="#00F076"/>
</linearGradient>
</defs>
</svg>
